<mxfile host="65bd71144e">
    <diagram id="HXpdNJQg9ysMq019GFWE" name="Page-1">
        <mxGraphModel dx="832" dy="467" grid="0" gridSize="10" guides="1" tooltips="1" connect="1" arrows="1" fold="1" page="0" pageScale="1" pageWidth="850" pageHeight="1100" math="0" shadow="0">
            <root>
                <mxCell id="0"/>
                <mxCell id="1" parent="0"/>
                <mxCell id="2" value="HTTP Request" style="whiteSpace=wrap;html=1;rounded=1;arcSize=3;fillColor=#f5f5f5;strokeColor=#666666;fontColor=#333333;labelPosition=center;verticalLabelPosition=top;align=center;verticalAlign=bottom;fontSize=16;" vertex="1" parent="1">
                    <mxGeometry x="240" y="40" width="250" height="280" as="geometry"/>
                </mxCell>
                <mxCell id="3" value="" style="whiteSpace=wrap;html=1;rounded=0;arcSize=7;fillColor=#dae8fc;strokeColor=#6c8ebf;" vertex="1" parent="1">
                    <mxGeometry x="250" y="50" width="230" height="60" as="geometry"/>
                </mxCell>
                <mxCell id="4" value="Host, Content-Type, Content-Length, etc." style="whiteSpace=wrap;html=1;rounded=0;arcSize=7;fillColor=#d5e8d4;strokeColor=#82b366;" vertex="1" parent="1">
                    <mxGeometry x="250" y="120" width="230" height="60" as="geometry"/>
                </mxCell>
                <mxCell id="5" value="Data along Request" style="whiteSpace=wrap;html=1;rounded=0;arcSize=7;fillColor=#ffe6cc;strokeColor=#d79b00;" vertex="1" parent="1">
                    <mxGeometry x="250" y="190" width="230" height="120" as="geometry"/>
                </mxCell>
                <mxCell id="6" value="Method" style="whiteSpace=wrap;html=1;rounded=0;arcSize=7;fillColor=#dae8fc;strokeColor=#6c8ebf;" vertex="1" parent="1">
                    <mxGeometry x="250" y="50" width="90" height="60" as="geometry"/>
                </mxCell>
                <mxCell id="7" value="URL" style="whiteSpace=wrap;html=1;rounded=0;arcSize=7;fillColor=#dae8fc;strokeColor=#6c8ebf;" vertex="1" parent="1">
                    <mxGeometry x="340" y="50" width="50" height="60" as="geometry"/>
                </mxCell>
                <mxCell id="8" value="HTTP Version" style="whiteSpace=wrap;html=1;rounded=0;arcSize=7;fillColor=#dae8fc;strokeColor=#6c8ebf;" vertex="1" parent="1">
                    <mxGeometry x="390" y="50" width="90" height="60" as="geometry"/>
                </mxCell>
                <mxCell id="9" value="HTTP Response" style="whiteSpace=wrap;html=1;rounded=1;arcSize=3;fillColor=#f5f5f5;strokeColor=#666666;fontColor=#333333;labelPosition=center;verticalLabelPosition=top;align=center;verticalAlign=bottom;fontSize=16;" vertex="1" parent="1">
                    <mxGeometry x="730" y="40" width="250" height="280" as="geometry"/>
                </mxCell>
                <mxCell id="10" value="" style="whiteSpace=wrap;html=1;rounded=0;arcSize=7;fillColor=#dae8fc;strokeColor=#6c8ebf;" vertex="1" parent="1">
                    <mxGeometry x="740" y="50" width="230" height="60" as="geometry"/>
                </mxCell>
                <mxCell id="11" value="Content-Type, Content-Length, Server, etc." style="whiteSpace=wrap;html=1;rounded=0;arcSize=7;fillColor=#d5e8d4;strokeColor=#82b366;" vertex="1" parent="1">
                    <mxGeometry x="740" y="120" width="230" height="60" as="geometry"/>
                </mxCell>
                <mxCell id="12" value="Data as Response" style="whiteSpace=wrap;html=1;rounded=0;arcSize=7;fillColor=#ffe6cc;strokeColor=#d79b00;" vertex="1" parent="1">
                    <mxGeometry x="740" y="190" width="230" height="120" as="geometry"/>
                </mxCell>
                <mxCell id="13" value="HTTP Version" style="whiteSpace=wrap;html=1;rounded=0;arcSize=7;fillColor=#dae8fc;strokeColor=#6c8ebf;" vertex="1" parent="1">
                    <mxGeometry x="740" y="50" width="90" height="60" as="geometry"/>
                </mxCell>
                <mxCell id="14" value="Status&lt;br&gt;Code" style="whiteSpace=wrap;html=1;rounded=0;arcSize=7;fillColor=#dae8fc;strokeColor=#6c8ebf;" vertex="1" parent="1">
                    <mxGeometry x="830" y="50" width="50" height="60" as="geometry"/>
                </mxCell>
                <mxCell id="15" value="Text" style="whiteSpace=wrap;html=1;rounded=0;arcSize=7;fillColor=#dae8fc;strokeColor=#6c8ebf;" vertex="1" parent="1">
                    <mxGeometry x="880" y="50" width="90" height="60" as="geometry"/>
                </mxCell>
                <mxCell id="19" style="edgeStyle=none;html=1;entryX=-0.004;entryY=0.143;entryDx=0;entryDy=0;entryPerimeter=0;fontSize=16;" edge="1" parent="1" source="16" target="9">
                    <mxGeometry relative="1" as="geometry"/>
                </mxCell>
                <mxCell id="20" style="edgeStyle=none;html=1;entryX=1.004;entryY=0.143;entryDx=0;entryDy=0;entryPerimeter=0;fontSize=16;" edge="1" parent="1" source="16" target="2">
                    <mxGeometry relative="1" as="geometry"/>
                </mxCell>
                <mxCell id="16" value="Start Line" style="text;strokeColor=none;align=center;fillColor=none;html=1;verticalAlign=middle;whiteSpace=wrap;rounded=0;fontSize=16;" vertex="1" parent="1">
                    <mxGeometry x="550" y="65" width="110" height="30" as="geometry"/>
                </mxCell>
                <mxCell id="21" style="edgeStyle=none;html=1;entryX=0.004;entryY=0.393;entryDx=0;entryDy=0;entryPerimeter=0;fontSize=16;" edge="1" parent="1" source="17" target="9">
                    <mxGeometry relative="1" as="geometry"/>
                </mxCell>
                <mxCell id="22" style="edgeStyle=none;html=1;entryX=1.008;entryY=0.393;entryDx=0;entryDy=0;entryPerimeter=0;fontSize=16;" edge="1" parent="1" source="17" target="2">
                    <mxGeometry relative="1" as="geometry"/>
                </mxCell>
                <mxCell id="17" value="Header (Optional)" style="text;strokeColor=none;align=center;fillColor=none;html=1;verticalAlign=middle;whiteSpace=wrap;rounded=0;fontSize=16;" vertex="1" parent="1">
                    <mxGeometry x="530" y="135" width="150" height="30" as="geometry"/>
                </mxCell>
                <mxCell id="23" style="edgeStyle=none;html=1;entryX=0;entryY=0.75;entryDx=0;entryDy=0;fontSize=16;" edge="1" parent="1" source="18" target="9">
                    <mxGeometry relative="1" as="geometry"/>
                </mxCell>
                <mxCell id="24" style="edgeStyle=none;html=1;exitX=0;exitY=0.5;exitDx=0;exitDy=0;entryX=1;entryY=0.75;entryDx=0;entryDy=0;fontSize=16;" edge="1" parent="1" source="18" target="2">
                    <mxGeometry relative="1" as="geometry"/>
                </mxCell>
                <mxCell id="18" value="Body (Optional)" style="text;strokeColor=none;align=center;fillColor=none;html=1;verticalAlign=middle;whiteSpace=wrap;rounded=0;fontSize=16;" vertex="1" parent="1">
                    <mxGeometry x="540" y="235" width="130" height="30" as="geometry"/>
                </mxCell>
            </root>
        </mxGraphModel>
    </diagram>
</mxfile>